<svg width="64" height="64" viewBox="0 0 64 64" fill="none" xmlns="http://www.w3.org/2000/svg">
<rect width="64" height="64" fill="white"/>
<path opacity="0.2" d="M41 35.1077L36.4004 39.7073C36.2783 39.8294 36.1266 39.9178 35.9602 39.9639C35.7938 40.01 35.6182 40.0122 35.4507 39.9703L28.2061 38.1592C28.0702 38.1252 27.943 38.0631 27.8326 37.9768L21 32.6339L25.0718 24.9737L31.4868 23.1035C31.716 23.0367 31.9614 23.0541 32.1789 23.1525L36.5 25.1077H33.9142C33.7829 25.1077 33.6529 25.1335 33.5315 25.1838C33.4102 25.234 33.3 25.3077 33.2071 25.4006L28.3153 30.2924C28.214 30.3937 28.1356 30.5156 28.0855 30.6498C28.0354 30.784 28.0148 30.9274 28.0249 31.0704C28.0351 31.2133 28.0758 31.3523 28.1444 31.4781C28.213 31.6039 28.3078 31.7135 28.4224 31.7995L29.1 32.3077C29.7924 32.827 30.6345 33.1077 31.5 33.1077C32.3655 33.1077 33.2076 32.827 33.9 32.3077L35.5 31.1077L41 35.1077Z" fill="#23BD33"/>
<path d="M46.0897 31.2231L43 32.7679L39 25.1077L42.1212 23.5471C42.3557 23.4299 42.6268 23.4094 42.8763 23.4901C43.1257 23.5708 43.3335 23.7463 43.4548 23.9787L46.5289 29.8658C46.5904 29.9835 46.6278 30.1123 46.639 30.2446C46.6501 30.377 46.6348 30.5102 46.5939 30.6365C46.553 30.7629 46.4874 30.8798 46.4008 30.9805C46.3142 31.0812 46.2085 31.1637 46.0897 31.2231V31.2231Z" stroke="#23BD33" stroke-width="2" stroke-linecap="round" stroke-linejoin="round"/>
<path d="M21 32.634L17.9103 31.0891C17.7915 31.0297 17.6858 30.9473 17.5992 30.8466C17.5126 30.7459 17.447 30.6289 17.4061 30.5026C17.3652 30.3762 17.3499 30.243 17.3611 30.1107C17.3722 29.9783 17.4096 29.8495 17.4711 29.7318L20.5452 23.8447C20.6666 23.6123 20.8743 23.4368 21.1238 23.3561C21.3732 23.2754 21.6444 23.2959 21.8789 23.4131L25 24.9737L21 32.634Z" stroke="#23BD33" stroke-width="2" stroke-linecap="round" stroke-linejoin="round"/>
<path d="M43 32.7679L41 35.1077L36.4004 39.7073C36.2783 39.8294 36.1266 39.9178 35.9602 39.9639C35.7938 40.01 35.6182 40.0123 35.4507 39.9704L28.2061 38.1592C28.0702 38.1252 27.943 38.0631 27.8326 37.9768L21 32.634" stroke="#23BD33" stroke-width="2" stroke-linecap="round" stroke-linejoin="round"/>
<path d="M41 35.1077L35.5 31.1077L33.9 32.3077C33.2076 32.827 32.3655 33.1077 31.5 33.1077C30.6345 33.1077 29.7924 32.827 29.1 32.3077L28.4224 31.7995C28.3078 31.7136 28.213 31.604 28.1444 31.4782C28.0758 31.3524 28.0351 31.2133 28.0249 31.0704C28.0148 30.9275 28.0354 30.7841 28.0855 30.6499C28.1356 30.5156 28.214 30.3937 28.3153 30.2924L33.2071 25.4006C33.3 25.3078 33.4102 25.2341 33.5315 25.1838C33.6528 25.1336 33.7829 25.1077 33.9142 25.1077H39" stroke="#23BD33" stroke-width="2" stroke-linecap="round" stroke-linejoin="round"/>
<path d="M25.0717 24.9737L31.4867 23.1035C31.7158 23.0367 31.9613 23.0541 32.1788 23.1525L36.4999 25.1077" stroke="#23BD33" stroke-width="2" stroke-linecap="round" stroke-linejoin="round"/>
<path d="M30 42.6077L26.2326 41.6658C26.0797 41.6276 25.938 41.5538 25.8191 41.4504L23 39" stroke="#23BD33" stroke-width="2" stroke-linecap="round" stroke-linejoin="round"/>
</svg>
