<svg width="64" height="64" viewBox="0 0 64 64" fill="none" xmlns="http://www.w3.org/2000/svg">
<rect width="64" height="64" fill="white"/>
<path opacity="0.2" d="M31.0008 23.0004L23.5412 25.7977C23.3769 25.8593 23.2317 25.9631 23.1202 26.0986C23.0087 26.2341 22.9348 26.3965 22.9059 26.5696L20.0008 44.0004L37.4315 41.0952C37.6046 41.0664 37.7671 40.9925 37.9026 40.881C38.0381 40.7695 38.1418 40.6243 38.2034 40.46L41.0008 33.0004L31.0008 23.0004ZM30.5001 35.9999C30.0056 35.9999 29.5223 35.8533 29.1111 35.5786C28.7 35.3039 28.3796 34.9135 28.1904 34.4566C28.0011 33.9998 27.9516 33.4972 28.0481 33.0122C28.1446 32.5273 28.3827 32.0818 28.7323 31.7322C29.0819 31.3825 29.5274 31.1444 30.0123 31.048C30.4973 30.9515 31 31.001 31.4568 31.1902C31.9136 31.3795 32.304 31.6999 32.5787 32.111C32.8534 32.5221 33.0001 33.0055 33.0001 33.4999C33.0001 33.8282 32.9354 34.1533 32.8098 34.4566C32.6841 34.76 32.5 35.0356 32.2678 35.2677C32.0357 35.4999 31.7601 35.684 31.4568 35.8096C31.1535 35.9353 30.8284 35.9999 30.5001 35.9999Z" fill="#FF6636"/>
<path d="M30.5 36C31.8807 36 33 34.8807 33 33.5C33 32.1193 31.8807 31 30.5 31C29.1193 31 28 32.1193 28 33.5C28 34.8807 29.1193 36 30.5 36Z" stroke="#FF6636" stroke-width="2" stroke-linecap="round" stroke-linejoin="round"/>
<path d="M20.0007 44.0004L28.7322 35.2677" stroke="#FF6636" stroke-width="2" stroke-linecap="round" stroke-linejoin="round"/>
<path d="M20.0007 44.0005L37.4314 41.0954C37.6045 41.0665 37.7669 40.9926 37.9024 40.8811C38.0379 40.7696 38.1417 40.6244 38.2033 40.4601L41.0007 33.0005L31.0007 23.0005L23.5411 25.7978C23.3768 25.8595 23.2316 25.9632 23.12 26.0987C23.0085 26.2342 22.9346 26.3967 22.9058 26.5698L20.0007 44.0005Z" stroke="#FF6636" stroke-width="2" stroke-linecap="round" stroke-linejoin="round"/>
<path d="M41.0007 33.0005L44.2936 29.7076C44.3864 29.6147 44.4601 29.5045 44.5103 29.3831C44.5606 29.2618 44.5865 29.1318 44.5865 29.0005C44.5865 28.8691 44.5606 28.7391 44.5103 28.6178C44.4601 28.4964 44.3864 28.3862 44.2936 28.2934L35.7078 19.7076C35.5202 19.52 35.2659 19.4147 35.0007 19.4147C34.7355 19.4147 34.4811 19.52 34.2936 19.7076L31.0007 23.0005" stroke="#FF6636" stroke-width="2" stroke-linecap="round" stroke-linejoin="round"/>
</svg>
