<svg width="40" height="40" viewBox="0 0 40 40" fill="none" xmlns="http://www.w3.org/2000/svg">
<path opacity="0.2" d="M20.3508 34.9959C23.0933 34.9323 25.7658 34.1178 28.0777 32.6412C30.3896 31.1645 32.2524 29.0822 33.4633 26.6208L33.4631 26.6206L24.9808 21.4037C24.8321 21.3122 24.666 21.2529 24.493 21.2296L20.9275 20.749C20.6598 20.7129 20.3876 20.7645 20.1517 20.8961C19.9157 21.0277 19.7288 21.2322 19.6188 21.479L17.4784 26.2818C17.3788 26.5052 17.347 26.7528 17.3868 26.9941C17.4266 27.2354 17.5363 27.4597 17.7023 27.6392L20.6398 30.8165C20.7729 30.9606 20.8703 31.1339 20.9241 31.3226C20.9778 31.5112 20.9864 31.7099 20.9492 31.9025L20.3508 34.9957L20.3508 34.9959Z" fill="#E34444"/>
<path opacity="0.2" d="M16.8164 6.36816C18.9039 5.8801 21.0737 5.87713 23.1592 6.35742L24.4062 8.5918C24.4338 8.64114 24.4437 8.69815 24.4346 8.75391C24.4254 8.80972 24.3984 8.86147 24.3564 8.89941L20.1514 12.7021C20.1371 12.715 20.1213 12.7261 20.1045 12.7354L18.1914 13.791C18.1544 13.8114 18.1126 13.8223 18.0703 13.8223H14.7354C14.2927 13.8223 13.86 13.9534 13.4912 14.1982C13.1224 14.4431 12.834 14.7912 12.6621 15.1992L11.6826 17.5244L11.6455 17.5166C11.6045 17.5078 11.5659 17.4883 11.5342 17.4609C11.5026 17.4336 11.4785 17.3985 11.4639 17.3594L9.66797 12.5674C9.6457 12.5076 9.6471 12.4416 9.67188 12.3828L10.9756 9.29688C12.6641 7.87539 14.6651 6.87118 16.8164 6.36816Z" fill="#E34444" stroke="#E34444" stroke-width="2"/>
<path d="M20 35C28.2843 35 35 28.2843 35 20C35 11.7157 28.2843 5 20 5C11.7157 5 5 11.7157 5 20C5 28.2843 11.7157 35 20 35Z" stroke="#E34444" stroke-width="2" stroke-linecap="round" stroke-linejoin="round"/>
<path d="M33.4631 26.6206L24.9808 21.4037C24.8321 21.3122 24.666 21.2529 24.493 21.2296L20.9275 20.749C20.6598 20.7129 20.3876 20.7645 20.1517 20.8961C19.9157 21.0277 19.7288 21.2322 19.6188 21.479L17.4784 26.2818C17.3788 26.5052 17.347 26.7528 17.3868 26.9941C17.4266 27.2354 17.5363 27.4597 17.7023 27.6392L20.6398 30.8165C20.7729 30.9606 20.8703 31.1339 20.9241 31.3226C20.9778 31.5112 20.9864 31.7099 20.9492 31.9025L20.3508 34.9957" stroke="#E34444" stroke-width="2" stroke-linecap="round" stroke-linejoin="round"/>
<path d="M10.1486 8.68848L8.75106 11.9931C8.62645 12.2878 8.61956 12.619 8.73181 12.9186L10.5273 17.7105C10.6008 17.9067 10.7225 18.0813 10.8811 18.2182C11.0397 18.3551 11.2303 18.45 11.4351 18.494L14.7836 19.2137C14.9694 19.2536 15.1436 19.3354 15.293 19.4528C15.4425 19.5702 15.5632 19.7201 15.646 19.8911L16.2406 21.1196C16.343 21.331 16.5028 21.5093 16.7018 21.634C16.9008 21.7588 17.1309 21.825 17.3658 21.825H19.4646" stroke="#E34444" stroke-width="2" stroke-linecap="round" stroke-linejoin="round"/>
<path d="M23.8217 5.49194L25.2801 8.10419C25.4179 8.35114 25.468 8.63754 25.422 8.91661C25.3761 9.19568 25.2368 9.45092 25.0271 9.64062L20.8222 13.4434C20.7509 13.5079 20.6723 13.564 20.5881 13.6105L18.6753 14.6668C18.4903 14.769 18.2824 14.8226 18.071 14.8226H14.7358C14.4899 14.8226 14.2494 14.8951 14.0445 15.0312C13.8395 15.1672 13.6793 15.3607 13.5838 15.5873L12.2827 18.6761" stroke="#E34444" stroke-width="1.5" stroke-linecap="round" stroke-linejoin="round"/>
</svg>
