<svg width="376" height="48" viewBox="0 0 376 48" fill="none" xmlns="http://www.w3.org/2000/svg">
<path d="M32.746 25.242C35.88 25.242 38 27.426 38 30.662C38 33.574 35.568 36 32.274 36C28.666 36 26 33.088 26 28.64C26 18.53 33.372 14.486 38 14V18.448C34.862 19.014 31.334 22.168 31.176 25.648C31.334 25.568 31.96 25.242 32.746 25.242Z" fill="#FF6636"/>
<path d="M16.746 25.242C19.882 25.242 22 27.426 22 30.662C22 33.574 19.568 36 16.274 36C12.666 36 10 33.088 10 28.64C10 18.53 17.372 14.486 22 14V18.448C18.862 19.014 15.334 22.168 15.176 25.648C15.334 25.568 15.96 25.242 16.746 25.242Z" fill="#FF6636"/>
</svg>
