<svg width="376" height="48" viewBox="0 0 376 48" fill="none" xmlns="http://www.w3.org/2000/svg">
<path d="M343.254 22.758C340.12 22.758 338 20.574 338 17.338C338 14.426 340.432 12 343.726 12C347.334 12 350 14.912 350 19.36C350 29.47 342.628 33.514 338 34V29.552C341.138 28.986 344.666 25.832 344.824 22.352C344.666 22.432 344.04 22.758 343.254 22.758Z" fill="#FF6636"/>
<path d="M359.254 22.758C356.118 22.758 354 20.574 354 17.338C354 14.426 356.432 12 359.726 12C363.334 12 366 14.912 366 19.36C366 29.47 358.628 33.514 354 34V29.552C357.138 28.986 360.666 25.832 360.824 22.352C360.666 22.432 360.04 22.758 359.254 22.758Z" fill="#FF6636"/>
</svg>
